<?xml version="1.0" encoding="UTF-8" standalone="no"?>
<!-- Created with Inkscape (http://www.inkscape.org/) -->

<svg
   width="29.903353mm"
   height="42.391792mm"
   viewBox="0 0 29.903353 42.391792"
   version="1.1"
   id="svg5"
   inkscape:version="1.1.2 (0a00cf5339, 2022-02-04, custom)"
   sodipodi:docname="DDD_inkscape.svg"
   xmlns:inkscape="http://www.inkscape.org/namespaces/inkscape"
   xmlns:sodipodi="http://sodipodi.sourceforge.net/DTD/sodipodi-0.dtd"
   xmlns="http://www.w3.org/2000/svg"
   xmlns:svg="http://www.w3.org/2000/svg">
  <sodipodi:namedview
     id="namedview7"
     pagecolor="#505050"
     bordercolor="#eeeeee"
     borderopacity="1"
     inkscape:pageshadow="0"
     inkscape:pageopacity="0"
     inkscape:pagecheckerboard="0"
     inkscape:document-units="mm"
     showgrid="false"
     fit-margin-top="0"
     fit-margin-left="0"
     fit-margin-right="0"
     fit-margin-bottom="0"
     inkscape:zoom="4"
     inkscape:cx="11.875"
     inkscape:cy="76.375"
     inkscape:window-width="1920"
     inkscape:window-height="1012"
     inkscape:window-x="0"
     inkscape:window-y="44"
     inkscape:window-maximized="1"
     inkscape:current-layer="layer1" />
  <defs
     id="defs2">
    <rect
       x="331.4982"
       y="189.85713"
       width="76.994049"
       height="122.76048"
       id="rect25395" />
    <rect
       x="227.09506"
       y="175.59749"
       width="223.93953"
       height="254.2587"
       id="rect1881" />
    <rect
       x="227.09506"
       y="175.59749"
       width="223.93953"
       height="254.2587"
       id="rect1881-3" />
    <rect
       x="227.09506"
       y="175.59749"
       width="223.93953"
       height="254.2587"
       id="rect1881-3-7" />
  </defs>
  <g
     inkscape:label="Layer 1"
     inkscape:groupmode="layer"
     id="layer1"
     transform="translate(-66.057644,-51.301261)">
    <text
       xml:space="preserve"
       transform="scale(0.26458333)"
       id="text25393"
       style="font-style:normal;font-weight:normal;font-size:40px;line-height:1.25;font-family:sans-serif;white-space:pre;shape-inside:url(#rect25395);fill:#000000;fill-opacity:1;stroke:none" />
    <g
       id="g32097"
       transform="translate(4.4732897)">
      <g
         aria-label="D"
         transform="matrix(-0.26458333,0,0,0.26458333,138.12038,0.50629818)"
         id="text1879"
         style="font-size:133.333px;line-height:1.25;font-family:Anton;-inkscape-font-specification:Anton;white-space:pre;shape-inside:url(#rect1881)">
        <path
           d="M 232.75975,295.69164 V 191.98096 h 31.57544 q 12.82549,0 18.68485,6.57551 5.92446,6.5104 5.98957,17.9036 0,0 0.26041,48.43737 0,15.55986 -6.11977,23.17703 -6.05467,7.61717 -19.59631,7.61717 z m 23.04682,-85.35135 v 66.40608 q 0.19531,-0.0651 0.78125,-0.0651 0.39062,0 1.43228,0.0651 1.10677,0.0651 1.75781,0.0651 6.57551,0 6.57551,-5.53384 v -51.17175 q 0,-5.66405 -1.82292,-7.74737 -1.7578,-2.14844 -6.18488,-2.14844 -0.71614,0 -2.53905,0.13021 z"
           id="path18" />
      </g>
      <g
         aria-label="D"
         transform="matrix(0.26458333,0,0,0.26458333,14.95168,0.50629818)"
         id="text1879-6"
         style="font-size:133.333px;line-height:1.25;font-family:Anton;-inkscape-font-specification:Anton;white-space:pre;shape-inside:url(#rect1881-3);fill:#ffffff">
        <path
           d="M 232.75975,295.69164 V 191.98096 h 31.57544 q 12.82549,0 18.68485,6.57551 5.92446,6.5104 5.98957,17.9036 0,0 0.26041,48.43737 0,15.55986 -6.11977,23.17703 -6.05467,7.61717 -19.59631,7.61717 z m 23.04682,-85.35135 v 66.40608 q 0.19531,-0.0651 0.78125,-0.0651 0.39062,0 1.43228,0.0651 1.10677,0.0651 1.75781,0.0651 6.57551,0 6.57551,-5.53384 v -51.17175 q 0,-5.66405 -1.82292,-7.74737 -1.7578,-2.14844 -6.18488,-2.14844 -0.71614,0 -2.53905,0.13021 z"
           id="path39" />
      </g>
    </g>
    <g
       aria-label="D"
       transform="matrix(0,0.26458333,-0.26458333,0,145.52434,17.157026)"
       id="text1879-6-5"
       style="font-size:133.333px;line-height:1.25;font-family:Anton;-inkscape-font-specification:Anton;white-space:pre;shape-inside:url(#rect1881-3-7);fill:#ff0000">
      <path
         d="M 232.75975,295.69164 V 191.98096 h 31.57544 q 12.82549,0 18.68485,6.57551 5.92446,6.5104 5.98957,17.9036 0,0 0.26041,48.43737 0,15.55986 -6.11977,23.17703 -6.05467,7.61717 -19.59631,7.61717 z m 23.04682,-85.35135 v 66.40608 q 0.19531,-0.0651 0.78125,-0.0651 0.39062,0 1.43228,0.0651 1.10677,0.0651 1.75781,0.0651 6.57551,0 6.57551,-5.53384 v -51.17175 q 0,-5.66405 -1.82292,-7.74737 -1.7578,-2.14844 -6.18488,-2.14844 -0.71614,0 -2.53905,0.13021 z"
         id="path60" />
    </g>
  </g>
</svg>
